<?xml version="1.0" standalone="no"?>
<!DOCTYPE svg PUBLIC "-//W3C//DTD SVG 20010904//EN"
 "http://www.w3.org/TR/2001/REC-SVG-20010904/DTD/svg10.dtd">
<svg version="1.0" xmlns="http://www.w3.org/2000/svg"
 width="40" height="40" viewBox="0 0 932.000000 932.000000"
 preserveAspectRatio="xMidYMid meet">
<metadata>
Created by potrace 1.14, written by Peter Selinger 2001-2017
</metadata>
<g transform="translate(0.000000,932.000000) scale(0.100000,-0.100000)"
fill="#000000" stroke="none">
<path d="M4396 8603 c-3 -3 -20 -6 -38 -8 -78 -6 -164 -16 -181 -21 -10 -3
-35 -7 -55 -9 -157 -15 -554 -129 -747 -215 -197 -88 -376 -184 -520 -279 -43
-28 -82 -51 -86 -51 -5 0 -9 -3 -9 -7 0 -5 -17 -19 -37 -33 -36 -24 -62 -44
-87 -65 -10 -9 -88 -71 -124 -100 -33 -26 -295 -285 -329 -325 -99 -119 -178
-218 -213 -270 -8 -12 -23 -33 -33 -45 -9 -13 -17 -28 -17 -33 0 -6 -3 -12 -8
-14 -4 -1 -23 -28 -42 -58 -49 -76 -51 -80 -89 -151 -18 -35 -38 -67 -43 -70
-5 -3 -10 -10 -11 -15 -1 -10 -81 -188 -98 -218 -30 -53 -158 -435 -175 -521
-2 -11 -6 -29 -8 -40 -40 -188 -61 -322 -73 -460 -9 -109 -9 -453 0 -550 21
-234 36 -321 91 -546 23 -97 75 -268 95 -314 5 -11 19 -47 32 -80 41 -109 146
-329 197 -415 12 -19 29 -48 38 -65 172 -306 508 -684 824 -925 25 -19 47 -37
50 -40 8 -9 212 -146 245 -164 17 -9 57 -33 90 -52 88 -51 334 -172 365 -179
3 -1 23 -9 45 -19 72 -32 308 -107 425 -136 255 -62 488 -90 765 -93 143 -1
410 13 435 23 3 1 8 2 12 1 6 -1 134 20 208 34 14 3 39 8 56 10 17 3 80 19
140 36 60 16 118 32 130 34 29 6 230 78 279 100 22 10 45 19 52 20 36 8 375
183 381 198 2 4 8 7 14 7 9 0 196 117 208 130 3 3 39 30 80 60 41 30 77 57 80
60 3 3 30 25 60 50 131 106 323 299 425 426 21 27 42 51 45 54 3 3 18 23 35
45 16 22 33 45 38 50 110 135 294 458 382 670 20 50 41 99 46 110 34 75 128
393 144 482 3 18 12 63 20 100 8 37 17 93 20 123 3 30 8 69 10 85 26 179 26
618 0 776 -2 13 -6 43 -9 67 -14 103 -19 132 -38 217 -41 190 -67 284 -123
440 -19 55 -39 109 -45 120 -5 11 -32 71 -60 133 -60 133 -121 249 -149 285
-8 9 -11 17 -8 17 5 0 -68 118 -90 145 -4 6 -25 35 -45 65 -21 30 -45 66 -55
80 -15 23 -108 138 -173 215 -30 37 -272 277 -327 325 -222 196 -568 411 -853
533 -168 71 -441 164 -462 156 -2 0 -16 5 -32 11 -16 6 -45 13 -65 16 -20 3
-52 9 -71 14 -19 5 -48 12 -65 14 -16 3 -39 8 -50 10 -21 4 -76 11 -160 22
-27 3 -68 8 -90 11 -51 7 -563 12 -569 6z m225 -100 c1 -57 -2 -567 -4 -569
-1 -1 -47 -5 -102 -8 -116 -7 -178 -13 -255 -26 -30 -5 -71 -12 -90 -15 -167
-27 -423 -110 -618 -201 -86 -40 -270 -140 -282 -153 -3 -3 -16 -12 -30 -19
-43 -22 -271 -197 -340 -260 l-65 -60 -209 209 -209 210 24 27 c13 14 32 33
42 40 10 8 25 22 35 31 20 21 134 116 181 151 18 14 38 30 44 36 63 57 377
246 528 317 131 62 336 144 404 162 6 1 15 4 20 5 6 1 21 7 35 12 25 10 247
67 285 73 215 38 292 48 367 49 32 1 58 3 58 6 0 3 41 6 90 8 l90 2 1 -27z
m304 17 c0 -1 18 -3 40 -5 22 -1 60 -5 85 -9 25 -3 63 -8 85 -11 22 -3 51 -7
65 -10 14 -3 39 -7 55 -10 36 -6 96 -19 113 -25 4 -1 11 -2 16 -1 5 1 21 -2
35 -7 14 -6 64 -20 111 -33 47 -12 91 -27 98 -32 6 -5 12 -7 12 -4 0 8 150
-45 265 -93 47 -20 315 -152 365 -181 56 -31 271 -174 306 -202 11 -8 57 -46
104 -83 114 -91 220 -188 220 -201 0 -11 -345 -350 -362 -356 -22 -8 -33 9
-19 27 21 25 -20 69 -48 52 -14 -9 -30 17 -37 64 -8 51 -19 68 -51 81 -13 5
-22 14 -21 20 2 7 -8 18 -22 26 -14 7 -21 13 -17 13 4 0 3 9 -2 19 -7 13 -20
18 -40 17 -23 -2 -35 5 -51 26 -11 15 -20 32 -20 38 0 5 -8 11 -17 11 -51 3
-76 9 -89 20 -24 20 -119 14 -147 -9 -26 -22 -108 -17 -162 11 -174 87 -476
186 -650 212 -22 4 -76 13 -115 20 -14 2 -56 7 -95 11 -38 4 -79 8 -90 9 -11
1 -48 3 -82 4 l-63 1 0 293 c0 162 3 297 6 300 5 5 219 2 219 -3z m-305 -935
l0 -265 -32 -1 c-40 -1 -119 -7 -173 -13 -89 -11 -134 -20 -225 -42 -52 -14
-103 -26 -113 -29 -44 -10 -199 -71 -275 -107 -180 -85 -372 -215 -498 -335
l-34 -33 -186 185 c-121 121 -183 189 -178 198 4 6 21 23 37 37 17 14 42 36
56 50 63 61 262 205 372 269 101 59 325 168 364 177 6 1 35 12 65 24 30 12 62
23 70 25 8 2 47 13 85 25 97 29 283 69 352 76 32 3 73 8 92 12 18 4 75 8 127
9 l94 3 0 -265z m320 250 c14 -2 45 -6 70 -9 25 -3 56 -8 70 -11 14 -3 39 -7
55 -10 28 -4 49 -8 100 -20 11 -2 47 -12 80 -21 33 -9 67 -18 75 -19 36 -8
166 -56 269 -100 103 -43 128 -63 101 -80 -22 -14 -10 -35 21 -35 22 0 32 -5
36 -20 3 -11 11 -20 18 -20 19 0 46 -35 49 -65 2 -15 7 -30 12 -33 5 -4 9 -23
9 -42 0 -28 5 -39 27 -52 21 -14 28 -25 28 -50 0 -18 -4 -39 -9 -47 -6 -10 -3
-23 10 -40 10 -14 21 -44 23 -66 2 -22 5 -43 5 -47 1 -12 34 -4 61 15 33 23
91 22 123 -3 47 -37 84 -129 50 -122 -7 1 -13 -2 -13 -7 0 -16 -116 -131 -132
-131 -37 0 -46 71 -10 80 21 5 21 6 4 31 -48 72 -97 119 -125 119 -41 0 -65
16 -80 53 -16 36 -131 148 -150 144 -18 -3 -30 -39 -15 -48 6 -4 15 -6 19 -3
4 2 24 -12 44 -32 l37 -36 -21 -21 c-23 -25 -14 -52 16 -52 12 0 19 -9 22 -25
1 -14 16 -37 32 -52 57 -55 27 -46 -77 22 -58 39 -109 70 -114 70 -11 0 -21
30 -15 41 3 4 17 4 32 -2 28 -10 55 3 47 25 -9 23 -58 45 -77 34 -10 -5 -29
-7 -43 -4 -19 5 -25 2 -30 -19 l-6 -24 -49 24 c-27 14 -70 33 -96 43 -27 11
-57 23 -68 27 -11 5 -22 9 -25 10 -34 11 -127 39 -135 41 -134 37 -292 64
-410 69 -33 2 -66 4 -72 4 -10 1 -13 36 -13 144 l1 142 33 25 c27 20 32 29 25
43 -5 9 -21 17 -34 17 -25 0 -25 2 -25 81 l0 81 108 -6 c59 -4 118 -8 132 -11z
m-2372 -487 c111 -112 202 -207 203 -213 0 -5 -12 -23 -29 -40 -16 -16 -55
-61 -87 -100 -32 -38 -62 -71 -67 -73 -4 -2 -8 -8 -8 -14 0 -5 -19 -35 -43
-66 -57 -75 -114 -163 -155 -237 -77 -139 -182 -373 -197 -435 -2 -8 -15 -48
-29 -87 -14 -40 -23 -73 -20 -73 3 0 0 -9 -6 -21 -7 -11 -13 -33 -15 -47 -3
-15 -6 -36 -9 -47 -2 -11 -9 -40 -15 -65 -5 -25 -13 -67 -16 -95 -4 -27 -8
-57 -11 -66 -2 -9 -7 -47 -10 -85 -5 -59 -8 -101 -13 -215 -1 -15 -30 -16
-298 -15 l-298 1 1 75 c1 78 13 261 19 270 1 3 6 34 9 69 4 36 9 67 11 71 2 3
6 24 9 45 21 164 121 501 203 685 82 185 183 373 271 505 35 53 152 214 177
244 18 22 149 173 185 213 8 10 20 17 26 18 5 0 101 -91 212 -202z m4430 175
c13 -16 40 -46 61 -68 47 -51 185 -224 231 -290 18 -27 36 -52 40 -55 3 -3 11
-17 19 -32 8 -16 18 -28 23 -28 5 0 6 -4 3 -10 -3 -5 -2 -10 3 -10 5 0 12 -8
16 -17 3 -10 14 -31 25 -48 72 -115 181 -332 232 -462 56 -143 135 -401 155
-507 2 -11 6 -32 9 -46 10 -49 15 -75 19 -105 3 -16 7 -43 10 -60 2 -16 7 -55
11 -85 3 -30 8 -77 12 -105 3 -27 6 -93 7 -145 l1 -95 -299 0 -298 0 -3 85
c-4 112 -13 195 -31 299 -8 47 -17 99 -20 115 -3 16 -7 32 -9 36 -2 4 -7 21
-10 38 -10 60 -74 257 -114 357 -41 98 -50 144 -31 146 6 1 15 2 20 3 31 3 28
65 -3 91 -14 12 -83 113 -113 166 -12 21 -33 49 -48 62 -14 13 -26 29 -26 35
0 7 -11 14 -24 18 -13 3 -36 23 -52 45 -16 21 -32 39 -36 39 -5 0 -8 11 -8 24
0 13 -7 26 -15 30 -8 3 -12 12 -9 21 5 11 -2 17 -25 21 -32 7 -111 83 -111
108 0 7 -9 16 -20 19 -48 12 -19 53 175 247 105 105 194 190 200 190 5 0 20
-12 33 -27z m-2378 -584 l0 -299 -27 -1 c-68 -1 -124 -9 -251 -35 -50 -10
-180 -57 -247 -89 -67 -32 -204 -112 -215 -124 -3 -3 -27 -24 -55 -46 -27 -22
-56 -45 -64 -53 -11 -11 -48 23 -224 198 l-211 212 49 46 c28 26 65 58 84 71
18 13 44 34 58 47 14 13 34 26 44 29 11 4 19 11 19 16 0 5 4 9 9 9 6 0 30 14
54 30 25 17 49 30 55 30 6 0 12 4 14 8 4 11 213 112 230 112 8 0 18 4 24 9 18
17 180 65 329 97 66 15 190 29 262 30 l62 2 1 -299z m289 287 c3 -2 31 -7 61
-11 30 -4 59 -9 63 -12 4 -3 27 -7 49 -10 23 -2 50 -9 60 -14 10 -6 23 -7 28
-4 6 3 10 2 10 -2 0 -5 8 -9 18 -10 32 -3 243 -85 317 -124 116 -61 137 -72
215 -123 41 -27 91 -66 110 -86 19 -21 45 -41 58 -44 13 -5 22 -15 22 -27 0
-12 10 -23 25 -29 14 -5 28 -17 31 -25 7 -18 -384 -415 -408 -415 -8 0 -24 10
-35 23 -23 25 -61 57 -68 57 -2 0 -27 17 -55 38 -28 21 -73 49 -100 63 -27 13
-50 27 -50 32 0 4 -7 7 -15 7 -9 0 -32 9 -53 19 -98 50 -265 93 -414 106 l-78
7 0 299 0 299 102 -5 c56 -3 104 -7 107 -9z m-1882 -338 l182 -182 -29 -35
c-15 -20 -37 -45 -47 -56 -75 -81 -192 -258 -266 -403 -58 -113 -65 -129 -123
-302 -3 -8 -5 -16 -5 -17 0 -2 -6 -21 -14 -43 -8 -22 -12 -40 -10 -40 3 0 0
-12 -6 -26 -5 -15 -12 -42 -15 -62 -3 -19 -7 -42 -9 -51 -11 -56 -26 -176 -29
-231 -3 -36 -5 -70 -5 -76 -1 -16 -518 -17 -524 -1 -7 19 5 210 17 277 2 14 7
43 10 65 8 57 17 100 42 210 3 11 7 30 10 43 6 30 53 182 64 207 4 11 22 56
39 100 69 178 194 398 322 567 73 97 196 238 207 238 4 0 89 -82 189 -182z
m3238 -94 c13 -14 30 -39 37 -55 15 -35 33 -37 57 -7 23 27 48 18 56 -19 10
-50 42 -98 64 -98 11 0 26 -6 33 -13 7 -7 19 -12 28 -12 9 0 29 -13 43 -30 19
-21 36 -30 57 -30 19 0 37 -8 48 -22 9 -12 33 -38 52 -59 19 -20 50 -57 69
-83 18 -25 37 -43 42 -41 5 3 11 -5 15 -19 5 -20 10 -23 37 -19 16 3 41 12 55
21 23 15 25 14 36 -4 32 -55 111 -290 132 -393 3 -12 11 -51 19 -85 16 -71 23
-108 30 -167 3 -24 8 -62 11 -83 3 -22 7 -80 9 -131 l3 -92 -264 -1 -264 -1
-1 27 c-1 36 -6 106 -13 162 -14 114 -16 157 -8 185 5 17 5 42 -1 58 -6 19 -5
32 4 43 16 19 1 35 -35 37 -27 2 -41 27 -35 58 2 8 -5 27 -16 43 -10 15 -19
43 -20 61 0 18 -5 39 -11 46 -17 22 -27 52 -25 73 4 27 -19 66 -39 66 -9 0
-25 19 -38 44 -21 44 -21 45 -2 51 25 8 25 16 0 48 -11 14 -20 30 -20 36 0 14
-23 14 -36 1 -14 -14 -78 78 -76 108 1 15 -6 26 -22 34 -14 6 -27 21 -30 34
-4 13 -11 24 -16 24 -6 0 -15 11 -20 25 -6 16 -15 23 -24 19 -15 -6 -54 42
-42 53 3 3 1 12 -6 20 -9 11 -1 24 37 63 27 28 53 50 58 50 4 0 19 -12 32 -26z
m-2783 -361 l207 -207 -32 -40 c-36 -45 -54 -68 -79 -98 -10 -12 -18 -27 -18
-34 0 -7 -4 -14 -8 -16 -4 -1 -25 -31 -46 -65 -20 -35 -44 -63 -52 -63 -8 0
-14 -4 -14 -8 0 -4 -23 -16 -50 -26 -64 -23 -72 -36 -21 -36 23 0 41 -3 41 -7
-1 -16 -28 -44 -46 -47 -51 -10 -104 -28 -109 -36 -3 -6 -23 -10 -44 -10 -36
0 -40 -3 -60 -45 -12 -25 -26 -45 -31 -45 -6 0 -10 -11 -10 -24 0 -14 -4 -28
-10 -31 -5 -3 -10 -15 -10 -26 0 -11 -6 -22 -13 -25 -9 -3 -13 -20 -12 -47 2
-33 -3 -47 -22 -65 -14 -12 -22 -29 -20 -36 3 -8 -2 -21 -11 -29 -13 -11 -45
-14 -147 -13 l-130 1 1 65 c8 361 165 775 412 1090 41 52 114 130 121 130 3 0
99 -93 213 -207z m2598 171 c22 -15 40 -32 39 -38 -4 -32 2 -43 24 -42 17 1
22 -5 23 -24 1 -13 7 -26 13 -28 31 -10 141 -158 141 -189 0 -6 5 -13 12 -15
21 -7 0 -38 -27 -38 -20 0 -25 -5 -25 -24 0 -13 -6 -29 -14 -36 -26 -21 -1
-47 54 -55 36 -5 59 -17 65 -34 3 -9 21 -34 40 -55 19 -21 35 -46 35 -56 0
-10 6 -20 14 -23 7 -3 17 -20 21 -39 4 -18 9 -37 11 -43 2 -5 8 -28 13 -50 4
-22 14 -53 20 -70 16 -39 16 -112 0 -150 -14 -36 -18 -100 -7 -118 6 -9 12 -7
23 7 21 28 27 16 30 -63 l4 -69 -200 0 c-189 0 -199 1 -199 19 0 14 9 21 30
26 17 3 30 9 30 13 0 5 3 15 6 24 4 11 1 16 -10 16 -21 0 -20 9 3 39 16 21 28
25 86 27 75 3 89 11 105 60 7 19 16 32 21 28 5 -3 22 8 38 24 29 29 34 57 17
110 -7 20 -9 21 -35 7 -20 -10 -32 -28 -45 -67 -18 -58 -42 -80 -91 -84 -61
-4 -84 18 -49 47 11 9 14 22 10 41 -3 17 -2 27 3 23 5 -3 12 3 14 12 3 10 8
28 12 40 9 33 -38 78 -83 79 -43 0 -56 -8 -100 -63 -9 -12 -26 -23 -37 -25
-16 -2 -19 2 -16 22 9 62 8 64 -36 73 -33 6 -43 13 -43 28 0 11 -18 39 -40 63
-32 34 -47 43 -77 44 -20 1 -39 6 -42 11 -4 5 -20 12 -36 15 -34 6 -49 24
-106 119 -22 37 -43 67 -47 67 -4 0 -16 7 -27 16 -18 14 -10 24 185 219 113
113 206 205 208 205 1 0 20 -12 42 -26z m-1460 -315 c0 -208 -3 -269 -12 -270
-50 -2 -100 -11 -155 -28 -31 -9 -32 -8 -35 22 -3 30 -4 31 -18 13 -33 -40
-63 -65 -71 -60 -5 3 -9 -3 -9 -13 0 -11 -14 -26 -34 -37 -18 -10 -48 -31 -65
-46 l-31 -29 -192 191 -192 191 44 39 c140 122 325 216 513 262 125 30 128 31
199 33 l58 2 0 -270z m236 257 c11 -2 39 -7 64 -11 42 -7 143 -37 185 -54 122
-52 261 -130 309 -173 11 -10 35 -28 53 -41 32 -21 48 -45 39 -55 -10 -10 -56
9 -56 23 0 19 -19 19 -26 0 -4 -8 -14 -15 -23 -15 -21 0 -41 -19 -41 -38 0
-10 8 -13 25 -10 14 3 33 0 42 -7 15 -11 9 -20 -49 -79 -46 -47 -76 -70 -101
-75 -48 -11 -61 -1 -52 40 l6 34 -19 -24 c-11 -14 -28 -26 -37 -27 -20 -3 -36
-24 -29 -36 3 -4 0 -8 -5 -8 -21 0 -10 -39 19 -68 26 -26 27 -31 12 -37 -41
-17 -74 -14 -105 8 -18 13 -54 36 -81 52 -32 18 -44 30 -36 35 7 4 18 30 25
56 12 48 12 49 -11 52 -15 2 -34 -6 -51 -22 -15 -14 -31 -26 -35 -26 -4 0 -5
-6 -2 -14 7 -18 -21 -28 -60 -21 -17 4 -40 8 -51 10 -11 2 -29 4 -41 4 -20 1
-20 5 -21 271 l-1 271 68 -6 c37 -3 76 -7 86 -9z m-949 -538 c84 -84 153 -155
153 -159 0 -10 -33 -8 -63 3 -21 8 -34 8 -52 -2 -21 -11 -29 -8 -92 36 -37 27
-71 52 -74 57 -3 4 -23 14 -44 21 -50 17 -95 4 -136 -41 -40 -45 -49 -35 -15
17 14 22 26 44 26 50 0 5 4 10 9 10 5 0 11 7 13 14 3 16 108 146 117 146 3 0
74 -69 158 -152z m1748 57 c35 -42 53 -93 55 -152 0 -27 -30 -32 -50 -8 -18
22 -35 3 -35 -37 0 -68 -45 -28 -60 53 -6 31 -4 36 20 47 22 10 25 15 15 27
-9 11 -7 16 9 24 11 6 27 11 35 11 33 0 14 16 -21 18 -21 2 -46 5 -56 8 -16 5
-35 -11 -91 -77 -14 -16 -19 -17 -36 -7 -29 19 -25 33 25 87 42 44 48 48 99
50 53 2 55 1 91 -44z m-1007 -168 c3 -37 3 -38 -25 -31 -15 4 -32 11 -37 15
-15 13 -26 11 -26 -5 0 -7 -9 -16 -20 -19 -17 -4 -20 0 -20 24 0 16 0 32 -1
37 0 10 38 18 86 17 39 0 40 -1 43 -38z m-78 -82 c0 -12 36 -31 51 -27 4 1 10
-9 13 -21 4 -17 14 -23 38 -25 78 -6 129 -36 192 -109 18 -22 18 -24 1 -43
-10 -11 -26 -20 -37 -20 -27 0 -22 -17 8 -24 15 -4 27 -6 28 -4 40 64 52 71
77 42 10 -12 10 -20 0 -35 -12 -20 -7 -59 9 -59 19 0 17 -31 -3 -57 -12 -15
-21 -29 -19 -30 8 -10 -3 -21 -38 -37 -22 -10 -40 -21 -40 -26 0 -12 63 -5 68
8 5 15 32 3 32 -15 0 -8 7 -21 15 -30 8 -8 13 -19 10 -24 -4 -5 -1 -9 4 -9 7
0 11 -24 11 -58 0 -60 11 -82 42 -82 16 0 17 -3 6 -22 -6 -13 -13 -36 -14 -53
0 -16 -9 -49 -20 -71 l-18 -42 -79 4 c-71 3 -79 2 -84 -16 -3 -10 -16 -26 -29
-35 -13 -8 -24 -24 -24 -35 0 -10 -5 -22 -11 -26 -6 -3 -9 -17 -6 -30 2 -14
-3 -31 -15 -44 -18 -20 -25 -36 -27 -66 -1 -17 -148 -9 -218 11 -65 19 -173
73 -218 109 l-30 25 35 30 c28 24 43 29 75 27 25 -1 44 3 50 11 11 15 45 8 45
-8 0 -19 28 -8 45 17 10 15 22 23 31 20 9 -3 14 1 14 14 0 10 5 22 10 25 6 3
10 19 10 34 0 15 9 36 20 46 24 22 43 84 30 100 -5 6 -7 21 -3 33 4 17 1 22
-15 22 -12 0 -24 5 -27 10 -3 6 -19 10 -36 10 -27 0 -29 2 -29 39 0 43 -20 71
-50 71 -26 0 -48 -35 -46 -71 2 -20 -3 -31 -16 -35 -10 -3 -18 -11 -19 -17 -4
-60 -10 -82 -23 -89 -8 -5 -13 -15 -10 -23 4 -10 -5 -16 -30 -21 -20 -3 -36
-9 -37 -13 -3 -29 -10 -44 -23 -54 -9 -7 -22 -41 -29 -76 l-13 -65 -35 45
c-49 61 -79 115 -78 142 0 12 -2 32 -6 45 -6 18 -4 21 9 16 9 -3 16 -10 16
-15 0 -5 4 -9 10 -9 20 0 -28 95 -56 111 -26 14 -29 21 -32 77 -3 53 -1 62 14
62 10 0 26 -7 36 -17 20 -18 24 -43 8 -43 -6 0 -9 -12 -6 -27 2 -16 5 -31 5
-35 2 -16 27 -7 39 13 11 17 21 20 55 17 l42 -3 -3 38 c-2 31 0 37 16 37 28 0
51 31 50 69 -1 18 3 36 9 39 5 4 12 15 16 25 3 9 13 17 22 17 8 0 15 3 16 8 0
4 2 15 4 24 4 21 -34 36 -45 18 -5 -7 -16 -10 -25 -6 -15 5 -14 9 9 27 14 11
26 29 26 40 0 10 4 19 9 19 5 0 11 9 14 20 4 14 12 19 29 17 24 -4 58 10 70
30 5 6 16 9 26 6 11 -2 32 9 55 31 38 36 45 52 26 58 -9 3 -9 10 0 26 7 12 9
28 5 34 -4 7 -3 8 4 4 7 -4 12 -13 12 -21z m-1285 -302 c22 -3 43 -11 47 -17
11 -15 1 -96 -13 -112 -6 -8 -8 -14 -3 -14 5 0 2 -5 -6 -9 -12 -8 -112 -9
-156 -3 -24 4 -36 75 -20 118 9 23 67 53 90 47 11 -3 39 -8 61 -10z m-1244
-243 c0 -3 2 -32 4 -65 7 -119 21 -270 25 -270 1 0 3 -13 5 -30 7 -56 13 -94
19 -112 3 -10 7 -29 10 -43 9 -43 38 -160 52 -202 5 -16 -1 -18 -45 -18 -27 0
-53 5 -56 10 -4 6 -11 8 -16 5 -5 -4 -13 5 -19 19 -11 30 -26 32 -58 10 -12
-8 -26 -12 -32 -9 -5 3 -16 -2 -24 -12 -8 -10 -24 -29 -35 -43 l-21 -25 -20
24 c-27 32 -25 39 12 49 17 4 33 12 35 18 4 13 -123 18 -132 5 -3 -6 -17 -11
-31 -11 -22 0 -30 -13 -25 -43 1 -4 -6 -10 -14 -13 -17 -7 -20 -45 -5 -60 8
-8 8 -19 0 -38 -14 -37 -13 -52 5 -70 14 -13 14 -16 0 -23 -13 -7 -13 -12 0
-36 7 -15 12 -27 9 -27 -3 0 1 -10 8 -22 7 -13 11 -27 10 -31 -1 -5 4 -23 12
-40 8 -18 16 -41 18 -51 2 -11 15 -23 31 -27 23 -6 28 -4 32 14 5 29 1 69 -9
86 -6 9 -3 18 9 28 11 7 21 13 24 13 6 0 40 -33 80 -77 21 -23 61 -22 61 2 0
7 7 18 15 25 12 10 15 10 15 -2 0 -23 80 -109 99 -106 23 4 41 -10 41 -31 0
-13 8 -18 26 -18 32 0 46 -16 68 -73 25 -64 62 -100 103 -100 18 0 33 4 33 10
0 19 29 -2 40 -30 14 -34 92 -109 115 -111 8 -1 20 -3 25 -4 6 -1 16 -3 24 -4
17 -1 55 -37 126 -120 30 -35 64 -72 74 -82 19 -19 16 -23 -194 -230 l-214
-211 -46 49 c-90 99 -116 129 -150 173 -19 24 -45 56 -57 70 -13 13 -23 28
-23 32 0 3 -6 13 -13 20 -48 48 -208 310 -295 484 -99 198 -213 515 -245 684
-3 14 -10 45 -16 70 -5 25 -13 68 -17 95 -3 28 -8 52 -9 55 -2 3 -7 33 -10 65
-4 33 -9 69 -11 80 -6 29 -15 159 -18 247 l-3 77 31 3 c53 5 566 3 567 -2z
m606 -4 c3 -3 7 -29 9 -58 10 -180 13 -161 -23 -171 -20 -6 -36 -19 -42 -36
-5 -14 -31 -48 -56 -76 -51 -54 -65 -80 -71 -135 -3 -19 -7 -54 -10 -76 -3
-24 -1 -51 6 -64 9 -17 9 -25 -4 -39 -9 -10 -16 -25 -16 -33 0 -9 -12 -18 -31
-22 -16 -3 -36 -12 -44 -20 -9 -8 -28 -12 -50 -9 -21 2 -43 -1 -50 -7 -17 -14
-58 118 -95 310 -5 25 -11 54 -13 65 -3 11 -8 47 -11 80 -4 33 -10 76 -13 95
-3 19 -6 71 -7 117 l-3 82 56 3 c97 5 462 1 468 -6z m321 -1 c3 -3 -7 -18 -23
-35 -16 -17 -25 -35 -22 -44 4 -9 0 -22 -8 -30 -32 -32 -43 -111 -15 -111 24
0 24 -42 1 -55 -12 -6 -21 -17 -21 -25 0 -16 -43 -12 -48 5 -2 6 -21 20 -43
30 -28 15 -39 27 -41 45 -1 14 -3 37 -4 53 -1 15 -5 59 -9 99 l-6 72 58 3 c76
4 174 0 181 -7z m347 -5 c16 -54 13 -69 -21 -99 -39 -36 -43 -63 -13 -85 14
-9 19 -21 15 -31 -5 -14 -9 -15 -21 -5 -24 20 -38 0 -14 -21 30 -26 41 -24 62
13 25 44 30 37 71 -122 10 -36 63 -161 95 -220 44 -84 81 -139 149 -223 l55
-67 -210 -209 -210 -210 -42 41 c-44 43 -46 63 -13 100 13 16 13 20 0 40 -8
13 -18 39 -22 59 -3 20 -17 46 -31 59 -13 13 -22 26 -20 31 3 4 1 11 -5 14 -6
4 -10 30 -9 59 1 28 -3 61 -10 74 -10 20 -9 23 14 34 28 13 32 34 11 63 -7 11
-12 28 -10 38 1 9 -1 17 -4 18 -23 2 -45 8 -50 13 -3 3 -6 40 -8 81 -2 59 -7
81 -25 107 -13 18 -26 35 -29 38 -3 3 -9 13 -15 22 -5 9 -23 35 -39 57 -19 28
-26 46 -21 58 13 29 14 43 4 49 -5 3 -9 26 -9 52 l0 47 36 1 c20 0 39 5 42 11
4 5 14 12 23 15 12 5 15 17 14 44 -4 59 2 66 51 61 24 -2 47 -1 52 2 6 3 42 6
81 6 55 0 72 -3 76 -15z m3270 -60 c-5 -89 -16 -183 -21 -191 -2 -4 -6 -26 -9
-50 -10 -77 -85 -331 -114 -386 -5 -10 -30 -61 -55 -113 -70 -148 -205 -346
-308 -452 -25 -25 -28 -26 -36 -10 -5 9 -13 39 -16 65 -4 27 -13 50 -21 53 -9
4 -12 20 -10 50 3 57 -14 58 -65 3 l-39 -42 -7 28 c-5 18 -1 37 10 56 9 16 14
29 9 29 -4 0 -1 5 8 10 11 6 16 20 14 40 -1 16 3 34 9 39 7 6 10 39 9 90 -2
66 -6 84 -23 101 -21 21 -40 21 -87 -2 -17 -8 -21 -17 -17 -37 4 -18 0 -32
-10 -40 -9 -8 -16 -11 -16 -7 0 3 -17 -1 -37 -10 -49 -21 -83 -27 -83 -15 0 5
-2 15 -5 23 -4 9 11 19 44 31 38 13 51 24 60 47 5 17 17 30 27 30 28 0 91 72
103 118 18 67 48 93 106 97 28 1 56 3 63 4 6 0 12 12 12 25 0 27 38 44 47 20
7 -18 52 -18 72 0 9 8 30 16 48 19 18 3 42 12 55 21 12 9 37 16 55 16 17 0 35
4 38 10 16 26 -54 100 -119 125 -46 18 -56 30 -62 77 -6 46 -45 117 -75 139
-25 18 -37 47 -25 60 2 2 110 4 240 4 l236 0 -5 -75z m610 -10 c-4 -88 -14
-211 -20 -220 -1 -3 -6 -30 -9 -61 -8 -67 -10 -81 -24 -134 -6 -22 -13 -51
-16 -65 -18 -101 -96 -321 -169 -475 -61 -130 -195 -357 -247 -417 -6 -7 -30
-39 -54 -70 -70 -91 -168 -198 -177 -192 -5 3 -9 25 -9 49 0 24 -4 45 -10 47
-5 2 -10 31 -11 66 -2 54 -6 66 -31 93 -18 18 -36 28 -45 25 -8 -3 -21 -6 -28
-6 -16 0 -32 -43 -34 -93 -1 -11 -35 18 -101 85 l-101 102 39 40 c53 56 138
166 194 252 59 90 138 233 138 248 0 7 4 16 8 22 23 26 87 207 122 344 19 74
22 89 35 180 4 25 9 57 11 73 2 15 7 61 9 103 3 42 7 79 9 83 2 3 121 6 264 6
l260 0 -3 -85z m679 -5 c-5 -127 -18 -276 -30 -340 -2 -10 -6 -37 -9 -60 -51
-354 -209 -780 -413 -1116 -37 -62 -72 -120 -78 -130 -13 -22 -150 -209 -177
-242 -28 -33 -115 -133 -161 -184 l-42 -46 -212 213 -213 213 34 36 c19 20 48
52 65 71 17 19 44 51 61 70 17 19 31 38 31 41 0 3 8 15 18 27 40 47 50 62 112
157 72 112 165 286 211 396 29 70 89 233 94 254 1 6 7 28 13 50 6 22 12 45 13
50 1 6 8 30 15 55 7 25 15 57 18 73 3 15 10 53 15 85 21 114 34 241 35 337 1
39 4 72 8 75 3 3 139 5 301 5 l295 0 -4 -90z m-3917 49 c1 -25 -2 -34 -11 -31
-7 3 -18 -3 -24 -14 -17 -27 -62 -22 -62 7 0 14 8 24 21 27 11 3 23 15 26 26
3 13 13 21 27 21 17 0 21 -7 23 -36z m-491 -173 c19 -23 32 -29 62 -29 94 1
99 0 116 -36 15 -32 19 -34 50 -29 37 6 55 -9 36 -32 -9 -11 -7 -16 9 -24 11
-6 22 -19 25 -29 4 -10 12 -19 19 -19 6 0 20 -4 29 -8 14 -6 16 -2 13 24 -3
26 -1 31 16 31 25 0 34 -22 19 -50 -9 -17 -8 -25 4 -39 9 -10 16 -34 16 -53 0
-31 3 -35 20 -31 24 6 44 39 36 59 -5 13 29 54 45 54 3 0 9 20 12 45 2 25 13
55 22 65 18 20 18 20 38 -12 11 -18 33 -50 49 -70 l30 -38 -191 -190 -191
-191 -42 48 c-53 61 -137 192 -170 263 -48 103 -67 153 -74 185 -2 12 -23 92
-30 118 -8 25 4 21 32 -12z m1428 -259 c3 -5 7 -20 10 -35 5 -28 -6 -41 -42
-50 -20 -5 -22 -2 -19 28 5 44 37 80 51 57z m-657 -59 c70 -53 185 -104 277
-123 45 -9 81 -22 81 -28 0 -6 6 -17 12 -23 10 -10 9 -16 -4 -31 -9 -10 -13
-18 -10 -18 3 0 -1 -12 -8 -27 -15 -29 -5 -46 22 -36 7 3 13 -2 13 -12 0 -9
-4 -13 -10 -10 -5 3 -10 -1 -10 -9 0 -9 -7 -16 -16 -16 -14 0 -14 -3 -4 -15 7
-8 18 -15 26 -15 8 0 11 -9 8 -27 -9 -55 -10 -56 -69 -49 -34 4 -55 2 -56 -4
-1 -5 -2 -14 -3 -19 0 -5 -4 -13 -8 -17 -5 -4 -8 -31 -8 -60 0 -41 3 -52 14
-48 7 3 16 -1 19 -9 7 -19 95 -16 108 4 6 10 9 6 9 -16 0 -50 -11 -57 -86 -57
-82 -1 -120 6 -234 38 -90 27 -293 121 -328 154 -12 11 -24 20 -28 20 -6 0
-92 69 -123 98 -12 12 14 42 175 203 104 104 190 189 191 189 2 0 24 -16 50
-37z m1173 -53 c0 -27 2 -29 23 -21 27 11 57 -3 57 -26 0 -11 7 -14 26 -10 20
3 28 -1 37 -20 9 -19 8 -26 -4 -34 -21 -13 -36 -11 -54 7 -11 12 -19 13 -29 5
-10 -8 -23 -2 -54 29 -53 49 -57 94 -9 99 4 1 7 -12 7 -29z m-504 -48 c-2 -4
-1 -14 4 -22 6 -10 0 -21 -18 -37 -22 -18 -34 -22 -62 -16 -19 3 -41 12 -48
20 -16 16 -36 7 -28 -13 3 -8 -8 -29 -24 -47 l-30 -32 2 54 c3 45 6 55 23 58
36 7 90 6 113 -2 13 -4 22 -4 21 1 -4 23 3 33 24 37 12 2 23 5 25 6 2 0 1 -3
-2 -7z m399 -131 c38 -2 70 -25 59 -42 -9 -16 -69 -38 -106 -41 -26 -1 -40 -8
-44 -20 -3 -10 -12 -18 -19 -18 -21 0 -34 -30 -30 -70 2 -19 4 -38 4 -42 1 -5
13 -8 29 -8 17 0 40 13 65 36 20 19 37 32 37 28 0 -3 6 -1 14 5 11 9 18 6 35
-15 27 -34 21 -42 -78 -97 -95 -53 -154 -78 -256 -109 -109 -33 -126 -31 -137
10 -11 40 -30 49 -61 29 -23 -15 -51 -20 -94 -18 -21 1 -23 6 -23 55 0 60 5
67 70 88 43 14 48 14 95 -8 28 -13 55 -24 61 -24 22 0 23 -40 3 -51 -11 -5
-17 -14 -14 -20 11 -17 22 -9 35 24 6 17 15 39 19 47 6 11 -3 21 -37 40 -62
34 -65 49 -8 47 37 -2 47 -6 58 -27 7 -14 15 -27 18 -30 3 -3 10 -14 16 -25 7
-11 21 -20 33 -19 11 0 21 -3 21 -7 0 -12 60 -39 87 -39 16 0 23 6 23 20 0 12
-5 17 -14 14 -13 -5 -46 20 -46 36 0 4 -9 10 -20 13 -14 3 -20 14 -20 32 0 24
3 26 26 21 21 -6 25 -3 22 11 -1 10 1 24 5 31 17 26 17 61 1 77 -21 21 -12 29
34 30 25 0 37 5 38 15 3 53 2 51 32 37 15 -7 45 -14 67 -16z m-590 -31 c3 -5
1 -10 -4 -10 -6 0 -11 5 -11 10 0 6 2 10 4 10 3 0 8 -4 11 -10z m-920 -175
c118 -104 305 -208 470 -261 69 -22 95 -34 83 -39 -10 -4 -18 -15 -18 -25 0
-10 -8 -21 -17 -24 -10 -3 -31 -17 -46 -30 -16 -14 -33 -26 -37 -28 -5 -2 -12
-18 -15 -36 -8 -50 -42 -102 -64 -102 -6 0 -11 -7 -11 -15 0 -14 13 -29 54
-63 9 -7 16 -22 16 -32 0 -11 4 -20 9 -20 4 0 20 -27 35 -59 24 -55 56 -84 73
-67 4 3 11 -4 17 -16 9 -18 21 -22 64 -24 28 -1 69 -8 90 -16 20 -8 56 -14 80
-13 39 1 42 -1 42 -26 0 -23 -4 -27 -22 -24 -13 2 -62 5 -110 7 -49 2 -88 5
-88 8 0 3 -8 6 -17 7 -73 3 -258 49 -381 94 -77 28 -281 122 -307 141 -5 5
-46 31 -90 60 -106 68 -265 204 -265 225 0 9 402 413 410 413 3 0 23 -16 45
-35z m1660 -135 c20 -11 42 -20 50 -20 9 0 23 -4 33 -9 58 -29 79 -35 123 -33
27 1 49 -3 49 -8 0 -10 50 -23 95 -25 17 -1 39 -6 50 -12 19 -11 18 -13 -13
-26 -19 -8 -62 -15 -97 -16 -57 -2 -72 2 -139 38 -42 22 -84 39 -94 38 -24 -1
-142 45 -142 55 0 5 10 8 21 8 18 0 19 2 9 15 -19 22 11 20 55 -5z m667 -377
c38 -37 68 -72 68 -77 0 -5 -7 -14 -15 -20 -12 -9 -12 -14 0 -30 15 -19 35
-14 35 10 0 21 13 17 42 -13 17 -19 24 -36 22 -52 -3 -13 2 -28 11 -35 8 -6
16 -23 17 -39 3 -30 21 -40 80 -40 21 0 38 -3 38 -7 0 -8 -48 -52 -135 -125
-33 -27 -61 -53 -63 -57 -2 -5 -10 -8 -18 -8 -8 0 -14 -3 -14 -7 0 -5 -17 -19
-38 -33 -20 -14 -46 -33 -56 -42 -11 -10 -24 -18 -30 -18 -5 0 -18 -7 -28 -17
-29 -26 -31 -9 -3 25 15 18 25 42 25 62 0 26 -5 34 -30 43 -38 14 -38 33 0 55
16 9 30 23 30 30 0 7 17 29 37 48 46 45 52 76 20 107 -39 37 -129 112 -141
116 -20 7 -35 35 -36 63 0 21 14 41 53 78 28 27 54 50 57 50 2 0 35 -30 72
-67z m-2580 -147 c163 -109 468 -249 595 -272 13 -3 60 -13 106 -23 73 -17
119 -25 222 -36 17 -2 58 -5 93 -6 l62 -4 0 -262 c0 -203 -3 -263 -12 -264
-63 -4 -302 17 -394 35 -208 42 -395 99 -564 173 -60 26 -253 124 -280 142
-14 9 -37 23 -52 31 -16 7 -28 17 -28 22 0 4 -5 8 -11 8 -22 0 -242 168 -340
260 l-43 40 34 35 c35 36 50 37 50 5 0 -20 24 -37 50 -34 8 1 49 2 90 3 65 1
79 4 102 26 32 30 51 34 157 39 56 3 86 8 92 17 15 24 10 65 -11 92 -19 24
-25 37 -16 37 2 0 46 -29 98 -64z m-707 0 c49 -54 48 -53 25 -76 l-22 -22 -39
42 c-40 42 -48 65 -26 73 16 7 48 -2 62 -17z m1977 -202 c15 -8 37 -12 50 -11
22 4 56 -19 45 -30 -4 -3 -26 -7 -49 -8 -24 -1 -68 -4 -98 -6 l-55 -3 -3 33
c-2 19 2 37 9 41 15 10 66 2 101 -16z m-1886 -89 c92 -83 263 -212 334 -253
25 -14 47 -29 50 -32 28 -30 334 -176 460 -219 36 -12 74 -26 85 -31 11 -5 31
-11 45 -15 14 -3 59 -15 100 -26 86 -22 197 -45 255 -54 23 -3 51 -7 63 -10
26 -5 185 -17 249 -19 23 -1 44 -4 48 -7 5 -6 9 -343 6 -545 l-1 -51 -50 3
c-86 4 -249 15 -267 18 -10 2 -44 7 -76 10 -50 6 -130 20 -242 41 -16 3 -38 8
-47 11 -9 3 -25 7 -35 9 -10 2 -73 19 -140 39 -477 138 -927 394 -1293 735
l-55 51 210 210 c115 115 211 210 213 210 2 0 41 -34 88 -75z m3774 -139 c116
-116 206 -212 201 -215 -5 -3 -43 -37 -85 -75 -139 -126 -465 -366 -496 -366
-5 0 -10 -3 -12 -7 -6 -15 -364 -200 -401 -208 -7 -1 -30 -10 -52 -20 -136
-61 -483 -160 -629 -179 -27 -4 -52 -9 -56 -11 -3 -2 -33 -6 -65 -10 -33 -3
-69 -8 -80 -10 -22 -4 -218 -18 -280 -19 l-40 -1 -3 298 c-2 234 0 297 10 298
7 1 31 2 53 4 120 9 203 17 225 20 14 2 48 6 75 10 28 3 58 8 67 11 10 3 29 7
43 10 14 2 36 6 50 8 14 3 51 12 82 21 75 22 140 7 155 -36 9 -26 21 -31 45
-16 6 4 30 9 53 11 23 2 49 12 58 23 9 10 27 19 40 21 23 4 32 10 122 87 25
22 70 60 100 85 29 25 58 50 64 55 36 33 122 99 191 146 44 30 87 59 95 66
121 95 198 161 229 196 9 9 19 16 23 15 5 -2 103 -97 218 -212z m-1734 100 c3
-8 27 -20 54 -26 42 -10 50 -16 55 -41 4 -16 12 -29 19 -29 7 0 19 -15 28 -32
13 -28 13 -39 2 -68 -18 -50 -17 -99 2 -107 8 -3 13 -12 10 -19 -7 -19 40 -64
66 -64 20 0 88 -55 88 -71 0 -9 -110 -34 -265 -59 -60 -10 -202 -22 -280 -24
l-40 -1 -3 263 c-1 144 1 262 5 263 5 0 31 2 58 4 85 6 169 16 174 21 9 8 22
4 27 -10z"/>
<path d="M5223 8373 c-25 -5 -30 -19 -10 -26 15 -5 47 10 47 23 0 6 -3 9 -7 9
-5 -1 -18 -4 -30 -6z"/>
<path d="M5376 8291 c-25 -5 -27 -8 -14 -19 18 -14 44 -7 52 14 3 8 2 13 -2
13 -4 -1 -20 -4 -36 -8z"/>
<path d="M5160 8242 c-8 -3 -18 -9 -21 -14 -3 -5 -26 -12 -50 -15 -24 -3 -52
-12 -62 -18 -10 -7 -26 -11 -36 -8 -25 6 -34 -22 -14 -42 17 -18 90 -16 102 2
3 6 38 9 76 8 84 -1 105 3 105 21 0 8 9 15 20 15 41 3 45 4 48 22 3 15 -5 17
-58 17 -34 0 -69 4 -78 9 -9 4 -24 6 -32 3z"/>
<path d="M4815 8154 c-33 -14 -66 -29 -73 -32 -25 -13 -10 -27 32 -30 24 -2
48 -12 59 -23 10 -11 31 -19 51 -19 24 0 40 -8 59 -30 27 -29 51 -38 61 -22 3
4 -8 22 -25 39 -16 18 -29 38 -29 46 0 27 -29 85 -45 91 -23 9 -23 8 -90 -20z"/>
<path d="M6160 7755 c-14 -7 -23 -17 -22 -22 8 -20 26 -33 60 -44 20 -6 47
-22 58 -35 25 -28 30 -29 38 -8 14 37 -51 125 -93 124 -9 -1 -27 -7 -41 -15z"/>
<path d="M4280 7582 c0 -26 105 -71 123 -53 11 11 -1 34 -12 26 -5 -2 -16 4
-26 15 -18 20 -85 29 -85 12z"/>
<path d="M3486 7355 c4 -8 10 -12 15 -9 11 6 2 24 -11 24 -5 0 -7 -7 -4 -15z"/>
<path d="M5156 7715 c-3 -9 0 -15 9 -15 16 0 20 16 6 24 -5 3 -11 -1 -15 -9z"/>
<path d="M5207 7680 c-16 -16 -15 -18 23 -35 22 -10 40 -22 40 -27 0 -4 9 -8
20 -8 11 0 20 6 20 14 0 15 -43 61 -57 61 -4 0 -12 3 -18 6 -5 4 -18 -1 -28
-11z"/>
<path d="M5091 7673 c-9 -4 -5 -12 15 -30 18 -15 30 -20 32 -13 6 17 -30 49
-47 43z"/>
<path d="M5156 7545 c-5 -14 17 -28 28 -18 10 10 7 21 -8 26 -8 3 -17 0 -20
-8z"/>
<path d="M5333 7355 c13 -28 30 -48 49 -56 15 -6 28 -15 28 -19 0 -5 13 -13
30 -18 16 -6 45 -25 62 -41 37 -34 48 -38 48 -16 0 8 -13 21 -30 30 -16 9 -30
21 -30 28 0 7 -18 21 -40 31 -39 17 -44 24 -41 57 1 12 -4 15 -24 11 -20 -3
-27 0 -31 15 -3 10 -13 19 -23 20 -17 1 -17 -1 2 -42z"/>
<path d="M4085 6730 c3 -5 10 -10 16 -10 5 0 9 5 9 10 0 6 -7 10 -16 10 -8 0
-12 -4 -9 -10z"/>
<path d="M4020 6705 c0 -7 11 -12 25 -12 15 0 24 4 22 11 -5 15 -47 16 -47 1z"/>
<path d="M6214 6719 c-3 -6 -1 -16 5 -22 8 -8 11 -5 11 11 0 24 -5 28 -16 11z"/>
<path d="M6368 6594 c-3 -2 -3 -18 0 -34 3 -24 12 -34 40 -45 19 -9 40 -22 46
-30 9 -12 14 -12 29 -1 16 13 16 14 -7 30 -14 9 -29 16 -33 16 -4 0 -17 13
-28 30 -19 29 -39 43 -47 34z"/>
<path d="M6444 6434 c5 -11 9 -26 10 -34 2 -8 15 -16 29 -18 15 -2 28 -6 28
-10 1 -4 2 -21 4 -38 3 -47 12 -64 34 -64 23 0 34 25 17 39 -7 6 -18 28 -25
50 -8 28 -22 46 -49 62 -52 33 -56 34 -48 13z"/>
<path d="M6580 6221 c0 -14 -7 -33 -16 -43 -13 -14 -14 -21 -5 -32 7 -8 13
-30 14 -50 1 -20 6 -36 10 -36 4 0 14 -15 22 -34 8 -19 19 -37 24 -40 5 -4 7
-21 4 -39 -5 -33 16 -65 35 -53 11 6 7 63 -6 79 -5 7 -8 31 -5 55 2 31 -1 44
-12 48 -8 4 -15 14 -15 24 0 11 -4 22 -10 25 -5 3 -10 21 -10 38 -1 18 -7 43
-15 57 l-14 25 -1 -24z"/>
<path d="M6675 5741 c-6 -11 9 -23 19 -14 9 9 7 23 -3 23 -6 0 -12 -4 -16 -9z"/>
<path d="M6660 5651 c0 -5 5 -13 10 -16 6 -3 10 -2 10 4 0 5 -4 13 -10 16 -5
3 -10 2 -10 -4z"/>
<path d="M6120 6420 c0 -5 7 -10 15 -10 8 0 15 5 15 10 0 6 -7 10 -15 10 -8 0
-15 -4 -15 -10z"/>
<path d="M6175 6400 c3 -5 8 -10 11 -10 2 0 4 5 4 10 0 6 -5 10 -11 10 -5 0
-7 -4 -4 -10z"/>
<path d="M6090 6355 c-4 -5 -11 -22 -15 -38 -4 -15 -11 -28 -16 -28 -5 -1 -13
-2 -18 -3 -20 -2 -24 -17 -8 -29 13 -9 16 -22 13 -47 -3 -19 -5 -40 -5 -46 -1
-7 -12 -15 -26 -18 -24 -6 -52 -42 -41 -53 3 -3 25 -7 50 -9 39 -3 45 -1 50
19 5 21 10 23 60 20 31 -1 58 2 62 8 9 16 -2 22 -38 21 -35 -2 -88 15 -88 28
0 4 12 11 26 14 22 6 25 11 22 36 -4 27 -2 29 19 24 29 -8 44 23 20 41 -15 11
-15 14 -2 25 10 8 12 17 6 29 -11 18 -57 23 -71 6z"/>
<path d="M6216 6271 c-4 -7 -5 -15 -2 -18 9 -9 19 4 14 18 -4 11 -6 11 -12 0z"/>
<path d="M6250 6251 c0 -6 5 -13 10 -16 6 -3 10 1 10 9 0 9 -4 16 -10 16 -5 0
-10 -4 -10 -9z"/>
<path d="M5740 6160 c0 -5 7 -10 15 -10 8 0 15 5 15 10 0 6 -7 10 -15 10 -8 0
-15 -4 -15 -10z"/>
<path d="M5836 6111 c-4 -7 -5 -15 -2 -18 9 -9 19 4 14 18 -4 11 -6 11 -12 0z"/>
<path d="M5863 6063 c-7 -3 -13 -11 -13 -19 0 -15 12 -17 48 -8 13 4 21 11 19
17 -3 11 -35 17 -54 10z"/>
<path d="M6455 5430 c-3 -5 3 -10 14 -10 12 0 21 5 21 10 0 6 -6 10 -14 10 -8
0 -18 -4 -21 -10z"/>
<path d="M6315 5399 c-9 -14 15 -31 33 -24 8 3 18 5 23 5 5 0 9 7 9 15 0 17
-16 20 -25 5 -5 -8 -11 -8 -20 0 -10 8 -15 8 -20 -1z"/>
<path d="M4540 6140 c0 -5 7 -10 16 -10 8 0 12 5 9 10 -3 6 -10 10 -16 10 -5
0 -9 -4 -9 -10z"/>
<path d="M4489 6123 c-1 -4 -1 -11 0 -15 0 -5 -3 -8 -9 -8 -16 0 -50 -39 -40
-45 6 -4 13 1 16 9 3 9 11 16 18 16 16 0 38 38 26 45 -6 3 -11 3 -11 -2z"/>
<path d="M5208 6162 c-25 -5 -22 -19 5 -28 12 -4 28 -16 36 -26 22 -33 90 -3
91 40 0 9 -7 11 -20 7 -12 -4 -27 -2 -34 4 -12 10 -38 11 -78 3z"/>
<path d="M5033 6135 c-6 -14 -9 -25 -6 -25 7 0 32 33 33 43 0 16 -16 5 -27
-18z"/>
<path d="M5110 6150 c-14 -3 -20 -9 -15 -12 14 -8 64 -7 70 2 7 11 -26 17 -55
10z"/>
<path d="M4715 6130 c4 -6 11 -8 16 -5 14 9 11 15 -7 15 -8 0 -12 -5 -9 -10z"/>
<path d="M4755 6120 c3 -5 10 -10 16 -10 5 0 9 5 9 10 0 6 -7 10 -16 10 -8 0
-12 -4 -9 -10z"/>
<path d="M4800 6100 c0 -5 4 -10 9 -10 6 0 13 5 16 10 3 6 -1 10 -9 10 -9 0
-16 -4 -16 -10z"/>
<path d="M4830 6066 c0 -9 5 -16 10 -16 6 0 10 4 10 9 0 6 -4 13 -10 16 -5 3
-10 -1 -10 -9z"/>
<path d="M4361 5448 c-21 -18 -21 -22 -7 -30 15 -8 15 -11 0 -33 -9 -14 -21
-25 -26 -25 -14 0 -68 -53 -68 -67 0 -15 -32 -76 -45 -86 -5 -4 -17 -6 -26 -3
-31 7 -44 -11 -44 -63 0 -56 0 -57 38 -66 20 -6 27 -4 27 8 0 8 5 17 12 19 6
2 13 13 14 25 6 39 57 104 86 110 40 8 53 30 57 101 1 7 12 17 26 22 38 14 35
66 -6 97 -13 10 -20 9 -38 -9z"/>
<path d="M4878 5192 c-2 -16 1 -33 6 -39 6 -5 22 -24 35 -41 25 -33 51 -42 51
-18 0 7 -7 20 -16 27 -18 15 -39 58 -43 89 -3 23 -29 8 -33 -18z"/>
<path d="M4726 5105 c-16 -14 -25 -25 -19 -25 5 0 15 -10 21 -22 9 -20 14 -15
11 8 0 4 5 10 11 14 6 4 10 17 8 29 -3 21 -3 21 -32 -4z"/>
<path d="M4449 4848 c-9 -18 -3 -55 10 -65 23 -18 45 -16 72 7 21 17 22 21 9
30 -8 5 -21 7 -29 5 -8 -3 -24 2 -37 10 -13 9 -25 14 -25 13z"/>
<path d="M1803 4000 c1 -11 7 -20 14 -20 7 0 13 -9 13 -20 0 -11 4 -20 9 -20
18 0 7 46 -15 63 -22 16 -23 16 -21 -3z"/>
<path d="M1970 3856 c0 -14 36 -87 56 -113 24 -31 54 -44 54 -23 0 17 -23 60
-32 60 -5 0 -14 13 -19 29 -6 15 -21 33 -34 39 -14 7 -25 10 -25 8z"/>
<path d="M3169 5190 c-9 -6 -8 -12 5 -25 13 -13 16 -32 15 -82 -2 -67 -15 -87
-43 -64 -11 9 -15 8 -20 -5 -11 -28 -7 -35 25 -46 17 -6 34 -20 39 -32 7 -19
9 -18 23 14 8 19 13 38 11 42 -2 3 -4 49 -5 101 -1 83 -3 96 -19 100 -10 2
-24 1 -31 -3z"/>
<path d="M3271 4971 c-10 -6 -10 -10 -1 -16 13 -8 24 -1 19 14 -3 6 -10 7 -18
2z"/>
<path d="M3206 4913 c-4 -5 -18 -8 -29 -8 -19 0 -22 -5 -19 -35 4 -35 37 -100
51 -100 5 0 12 15 18 33 7 24 6 38 -5 55 -13 20 -13 25 3 42 15 16 15 20 3 20
-8 0 -18 -3 -22 -7z"/>
<path d="M3220 4705 c0 -9 5 -15 11 -13 6 2 11 8 11 13 0 5 -5 11 -11 13 -6 2
-11 -4 -11 -13z"/>
<path d="M3242 4651 c2 -7 7 -12 11 -12 12 1 9 15 -3 20 -7 2 -11 -2 -8 -8z"/>
<path d="M3265 4581 c-6 -11 9 -23 19 -14 9 9 7 23 -3 23 -6 0 -12 -4 -16 -9z"/>
<path d="M3185 4540 c-3 -5 3 -10 15 -10 12 0 18 5 15 10 -3 6 -10 10 -15 10
-5 0 -12 -4 -15 -10z"/>
<path d="M6391 5006 c-15 -18 -1 -28 45 -32 35 -2 39 2 28 30 -8 20 -57 21
-73 2z"/>
<path d="M6047 4333 c-4 -3 -7 -17 -7 -30 0 -34 25 -28 26 7 2 29 -5 37 -19
23z"/>
<path d="M6657 3985 c-5 -10 0 -15 14 -15 12 0 19 5 17 12 -6 18 -25 20 -31 3z"/>
<path d="M6632 3906 c4 -28 20 -37 24 -12 1 8 -4 21 -13 27 -12 10 -14 8 -11
-15z"/>
<path d="M7373 4685 c-17 -14 -17 -14 2 -15 11 0 26 4 33 9 11 7 11 9 -1 14
-8 3 -23 -1 -34 -8z"/>
<path d="M7606 4375 c4 -8 10 -12 15 -9 14 8 10 24 -6 24 -9 0 -12 -6 -9 -15z"/>
<path d="M7587 4341 c3 -12 10 -21 15 -21 13 0 6 32 -9 37 -7 3 -9 -3 -6 -16z"/>
<path d="M7490 4265 c0 -8 5 -15 10 -15 6 0 10 7 10 15 0 8 -4 15 -10 15 -5 0
-10 -7 -10 -15z"/>
<path d="M7456 4224 c-19 -18 -20 -30 -4 -40 12 -8 38 21 38 43 0 18 -15 16
-34 -3z"/>
<path d="M4520 4570 c-6 -4 -13 -24 -17 -45 -6 -38 -6 -38 23 -31 35 9 40 13
48 47 5 23 2 27 -18 31 -14 3 -30 2 -36 -2z"/>
<path d="M5300 4310 c0 -5 7 -10 15 -10 8 0 15 5 15 10 0 6 -7 10 -15 10 -8 0
-15 -4 -15 -10z"/>
<path d="M4151 3261 c-11 -7 -10 -11 6 -20 23 -12 34 -6 26 15 -6 16 -13 17
-32 5z"/>
<path d="M4411 3012 c7 -11 19 -18 26 -15 20 8 10 27 -16 31 -20 3 -21 1 -10
-16z"/>
<path d="M2732 2862 c3 -4 10 -21 17 -38 7 -18 20 -35 29 -38 9 -3 23 -9 30
-12 17 -8 15 22 -4 51 -13 20 -82 56 -72 37z"/>
<path d="M2135 8261 c-22 -11 -76 -33 -120 -51 -458 -183 -706 -413 -814 -755
-13 -38 -25 -77 -28 -85 -3 -8 -7 -22 -9 -30 -4 -17 -78 -235 -90 -264 -7 -18
56 32 306 241 82 69 179 166 225 227 17 21 36 45 43 52 6 7 12 15 12 18 0 3 7
14 15 23 12 15 106 147 147 206 35 52 183 242 208 267 3 3 41 43 85 88 44 45
75 82 70 82 -6 -1 -28 -9 -50 -19z"/>
<path d="M7166 8241 c79 -77 137 -143 229 -259 5 -7 15 -18 20 -25 6 -7 22
-28 35 -47 13 -19 29 -40 35 -47 5 -6 62 -85 125 -175 133 -189 243 -305 435
-458 72 -58 141 -115 155 -128 14 -13 32 -27 42 -32 14 -9 14 -6 -2 28 -17 37
-50 133 -91 272 -13 41 -23 77 -24 80 -1 3 -5 12 -8 20 -3 8 -15 38 -25 67
-65 174 -207 345 -392 472 -96 66 -349 195 -390 199 -3 1 -32 13 -65 28 -33
14 -73 30 -89 35 -30 9 -30 9 10 -30z"/>
<path d="M8085 7776 c76 -73 131 -157 173 -263 29 -74 65 -196 76 -259 3 -16
10 -49 15 -74 34 -166 41 -197 45 -215 14 -59 49 -171 79 -255 39 -105 68
-200 62 -200 -2 0 -22 37 -45 83 -23 45 -48 89 -56 98 -8 8 -14 21 -14 27 0 7
-3 12 -7 12 -5 0 -19 16 -32 35 -37 55 -174 187 -256 248 -5 4 -62 44 -126 90
-63 45 -135 98 -159 117 -59 47 -180 170 -192 195 -5 11 -25 47 -44 80 l-35
60 6 -55 c15 -134 56 -252 129 -375 85 -143 278 -351 442 -477 16 -12 31 -25
34 -28 3 -3 43 -36 90 -72 159 -124 274 -249 355 -386 l30 -51 0 182 c1 100 5
232 10 292 14 180 11 337 -11 505 -1 14 -5 35 -8 48 -4 12 -8 32 -11 44 -59
269 -310 551 -572 641 l-42 14 64 -61z"/>
<path d="M1251 7819 c-192 -77 -381 -245 -484 -431 -28 -50 -75 -180 -83 -226
-2 -15 -10 -49 -16 -77 -12 -52 -20 -555 -8 -555 11 0 17 -323 6 -382 -8 -52
4 -47 33 12 14 28 29 50 33 50 4 0 8 5 8 11 0 18 115 157 164 198 10 9 26 24
35 34 9 10 41 37 71 60 30 23 69 53 86 67 17 14 42 34 55 44 126 100 282 251
354 341 22 28 42 52 45 55 10 9 87 134 108 175 49 94 92 246 91 320 l-1 40
-10 -30 c-6 -16 -17 -37 -24 -46 -8 -8 -14 -19 -14 -23 0 -15 -63 -91 -130
-156 -70 -69 -223 -190 -240 -190 -6 0 -10 -4 -10 -9 0 -5 -8 -12 -18 -15 -10
-4 -27 -14 -38 -24 -10 -10 -35 -28 -54 -42 -19 -13 -37 -27 -40 -30 -3 -3
-27 -23 -55 -45 -134 -108 -230 -234 -314 -415 -11 -25 -11 -25 -7 5 8 55 46
174 78 240 5 12 10 27 12 35 1 8 11 42 21 75 10 33 20 65 21 70 5 17 36 169
39 185 9 56 31 150 69 300 5 16 29 75 54 130 37 82 131 201 192 243 27 18 11
22 -29 6z"/>
<path d="M590 7222 c0 -4 -11 -19 -25 -34 -33 -36 -143 -207 -183 -285 -86
-167 -138 -335 -159 -518 -14 -123 -4 -354 18 -411 4 -13 7 -24 5 -24 -2 0 5
-33 15 -72 11 -40 22 -80 24 -88 2 -8 4 -15 5 -15 1 0 3 -7 5 -15 2 -8 22 -67
45 -130 22 -63 42 -119 43 -125 2 -5 12 -35 24 -65 26 -68 70 -207 76 -240 3
-14 9 -43 15 -65 6 -22 13 -64 17 -92 4 -29 10 -53 14 -53 4 0 8 6 8 13 2 45
74 263 92 277 3 3 7 10 8 16 3 16 101 184 139 237 19 26 34 49 34 52 0 3 5 11
11 18 25 28 239 338 239 346 0 5 3 11 8 13 7 3 92 135 92 143 0 2 13 27 30 55
16 27 28 50 25 50 -2 0 9 28 24 63 52 115 123 397 100 397 -5 0 -9 -4 -9 -9 0
-29 -69 -113 -174 -213 -187 -177 -318 -309 -361 -363 -22 -27 -42 -52 -45
-55 -3 -3 -19 -25 -36 -50 -74 -106 -143 -281 -147 -369 -1 -22 -6 -41 -10
-41 -5 0 -6 -4 -3 -8 8 -13 -14 -83 -24 -77 -5 3 -7 11 -5 18 2 7 7 55 10 107
4 52 8 113 10 135 21 239 21 376 0 535 -3 19 -7 58 -11 85 -9 78 -14 112 -19
153 -23 171 -23 434 -1 471 3 5 8 26 12 47 3 22 23 74 44 117 21 42 35 77 29
77 -5 0 -9 -3 -9 -8z"/>
<path d="M8736 7186 c58 -104 91 -259 88 -411 -2 -98 -13 -251 -19 -275 -4
-13 -13 -82 -20 -150 -1 -14 -3 -25 -4 -25 -1 0 -4 -22 -6 -50 -3 -27 -7 -72
-10 -100 -5 -60 -6 -213 -1 -275 6 -67 15 -184 22 -280 3 -47 8 -88 10 -92 2
-3 0 -17 -5 -30 -8 -23 -8 -22 -15 7 -8 36 -13 62 -20 106 -12 73 -18 95 -41
161 -64 183 -179 325 -550 679 -106 101 -134 134 -161 187 -34 67 -33 38 2
-128 4 -20 21 -84 29 -110 32 -101 121 -292 169 -363 14 -21 26 -40 26 -43 0
-3 19 -33 43 -67 64 -93 225 -321 234 -332 7 -9 50 -75 118 -185 60 -96 133
-274 156 -380 l13 -55 7 40 c16 90 18 101 24 130 16 79 73 265 86 281 6 8 9
14 6 14 -3 0 6 28 20 63 13 34 26 67 27 74 1 7 5 16 9 19 4 4 7 13 7 20 0 7 5
25 12 41 6 15 12 33 14 38 1 6 14 48 29 94 15 46 28 93 31 105 2 11 9 44 14
73 6 28 12 62 12 75 1 13 4 28 8 33 8 12 5 309 -4 345 -3 13 -8 42 -12 65 -24
158 -110 374 -216 542 -94 150 -195 271 -132 159z"/>
<path d="M9205 5975 c7 -46 7 -194 0 -245 -11 -83 -14 -101 -35 -176 -32 -113
-128 -356 -149 -377 -6 -6 -11 -15 -11 -20 0 -4 -23 -61 -51 -125 -28 -64 -57
-130 -64 -147 -30 -70 -83 -258 -91 -320 -1 -11 -3 -20 -4 -20 -1 0 -4 -13 -6
-30 -8 -52 -56 -238 -71 -277 -8 -21 -19 -38 -24 -38 -12 0 -12 0 6 49 8 23
14 43 15 46 0 3 0 6 1 8 2 7 8 38 14 77 21 129 8 306 -34 451 -35 122 -112
295 -197 444 -38 65 -36 62 -111 181 -49 78 -119 224 -106 224 3 0 0 7 -7 15
-7 8 -10 15 -7 15 4 0 0 18 -8 40 -8 22 -14 43 -14 46 0 3 -2 8 -5 11 -5 5
-10 -70 -8 -117 2 -56 14 -235 16 -240 2 -3 7 -30 10 -60 10 -86 44 -268 82
-438 12 -59 108 -389 165 -572 11 -36 23 -76 26 -90 9 -44 11 -55 13 -55 13 0
17 -273 6 -400 l-7 -80 32 50 c62 97 102 154 118 172 9 10 29 36 45 58 17 22
33 42 36 45 8 7 179 216 217 265 81 106 198 306 207 357 9 48 20 85 28 96 6 6
8 12 5 12 -3 0 6 40 18 89 13 49 26 106 29 127 11 71 16 99 22 129 3 17 7 113
10 215 3 157 0 201 -17 290 -11 58 -22 112 -23 120 -1 9 -5 21 -10 28 -4 6 -5
12 -2 12 3 0 -1 18 -9 40 -8 22 -14 42 -15 45 0 3 0 6 -1 8 0 1 -2 11 -4 23
-3 11 -11 34 -20 50 l-16 29 6 -40z"/>
<path d="M107 5983 c-10 -18 -38 -114 -52 -178 -9 -39 -18 -79 -20 -90 -23
-104 -29 -161 -29 -310 0 -208 15 -325 73 -553 47 -183 78 -259 164 -393 35
-55 167 -228 213 -279 48 -54 134 -160 134 -165 0 -3 9 -16 21 -28 29 -31 119
-164 119 -177 0 -5 5 -10 10 -10 6 0 10 -7 10 -15 0 -8 7 -15 16 -15 8 0 13 4
10 9 -8 13 -20 154 -20 246 0 140 11 213 56 355 8 25 15 47 15 50 0 3 15 52
33 109 18 57 33 109 34 115 2 6 12 43 24 81 24 78 78 291 87 345 4 19 13 71
21 115 8 44 17 94 19 110 3 17 7 47 11 68 25 155 37 407 18 407 -5 0 -21 -36
-34 -81 -27 -93 -72 -184 -160 -323 -34 -55 -78 -129 -96 -164 -19 -36 -38
-70 -42 -76 -5 -6 -30 -62 -56 -124 -117 -277 -140 -522 -71 -757 9 -32 14
-59 11 -62 -8 -8 -27 37 -51 121 -24 86 -36 139 -61 271 -3 17 -14 62 -25 100
-11 39 -21 77 -24 85 -15 56 -73 199 -140 345 -55 121 -73 161 -93 210 -34 86
-44 114 -41 118 2 2 -1 10 -8 18 -6 8 -14 26 -17 39 -4 14 -17 70 -30 125 -19
81 -23 125 -22 233 0 72 0 132 -1 132 -1 0 -4 -3 -6 -7z"/>
<path d="M1025 4612 c0 -123 -4 -158 -30 -287 -9 -44 -18 -91 -21 -105 -2 -14
-7 -36 -10 -50 -3 -14 -8 -36 -10 -50 -3 -14 -9 -47 -14 -75 -40 -217 -27
-459 37 -645 22 -65 70 -167 104 -223 71 -115 4 -59 -94 80 -31 44 -57 86 -57
92 0 6 -4 11 -8 11 -5 0 -14 12 -21 27 -31 68 -157 212 -418 479 -178 183
-241 256 -310 359 -83 124 -146 277 -152 373 -1 6 -5 12 -9 12 -19 0 -1 -351
24 -460 3 -14 8 -36 10 -50 14 -80 114 -329 136 -338 4 -2 8 -8 8 -14 0 -12
84 -139 125 -187 36 -43 226 -234 275 -276 42 -36 155 -124 190 -148 96 -66
212 -141 385 -252 110 -71 224 -146 252 -167 62 -45 62 -46 -15 108 -72 143
-104 254 -128 433 -2 19 -6 46 -9 60 -2 14 -6 49 -10 76 -3 28 -7 66 -9 85 -3
19 -7 64 -11 100 -3 36 -8 90 -11 120 -2 30 -7 78 -9 105 -10 123 -16 182 -20
215 -3 19 -7 53 -10 75 -10 83 -15 121 -20 145 -3 14 -8 41 -11 60 -14 80 -55
240 -80 310 -46 133 -49 133 -49 2z"/>
<path d="M8267 4663 c-25 -64 -72 -221 -81 -267 -24 -129 -36 -198 -41 -231
-12 -107 -16 -133 -20 -166 -3 -20 -8 -67 -10 -105 -3 -38 -7 -89 -10 -114 -3
-25 -7 -74 -10 -110 -16 -181 -19 -208 -35 -334 -9 -69 -18 -120 -54 -301 -8
-40 -50 -141 -92 -222 -24 -46 -41 -83 -37 -83 4 0 2 -5 -5 -12 -39 -39 4 -16
126 65 75 51 217 143 314 205 175 112 375 256 453 327 80 73 177 169 208 208
18 22 39 48 47 57 26 29 100 139 100 149 0 5 4 11 9 13 26 10 142 292 156 382
6 36 13 71 21 106 8 32 18 417 11 410 -3 -3 -7 -21 -10 -40 -16 -98 -73 -245
-130 -335 -63 -99 -176 -233 -337 -397 -267 -271 -339 -354 -428 -493 -29 -44
-56 -85 -62 -92 -5 -7 -10 -15 -10 -19 0 -8 -95 -127 -116 -145 -15 -12 -15
-10 0 26 9 21 20 43 25 49 49 60 122 265 143 402 18 116 15 347 -5 434 -4 14
-9 41 -12 60 -2 19 -7 44 -10 55 -11 46 -52 251 -53 265 -1 8 -5 43 -10 77 -4
34 -7 102 -7 152 1 50 1 91 0 91 -1 0 -14 -30 -28 -67z"/>
<path d="M1335 3775 c4 -11 15 -40 24 -65 9 -25 19 -49 23 -55 3 -5 9 -26 14
-45 4 -19 9 -39 10 -45 13 -50 35 -158 40 -190 3 -22 9 -62 15 -90 5 -27 11
-66 14 -85 13 -104 58 -331 72 -370 4 -8 7 -19 8 -25 0 -5 4 -18 8 -27 13 -34
20 -53 22 -64 6 -25 77 -159 114 -213 51 -74 95 -125 205 -233 48 -49 85 -88
80 -88 -23 0 -216 135 -308 215 -52 46 -340 215 -365 215 -6 0 -11 5 -11 10 0
6 -5 10 -11 10 -17 0 -324 150 -439 215 -241 135 -439 327 -523 508 -17 35
-32 52 -22 25 2 -7 7 -26 9 -42 25 -148 155 -403 295 -576 106 -132 303 -319
411 -390 12 -8 28 -21 36 -27 7 -7 17 -13 22 -13 6 0 12 -3 14 -8 6 -13 100
-69 178 -106 150 -69 314 -113 630 -167 30 -5 66 -11 80 -14 14 -3 41 -8 60
-11 19 -3 42 -7 50 -9 8 -2 29 -7 45 -10 78 -13 193 -43 217 -56 32 -17 19 2
-44 65 -147 146 -258 342 -363 636 -15 41 -28 80 -29 85 -2 6 -5 17 -8 25 -3
8 -13 38 -23 65 -9 28 -20 59 -25 70 -4 11 -22 61 -40 110 -18 50 -50 128 -71
173 -39 85 -138 254 -151 260 -5 2 -8 8 -8 14 0 5 -9 22 -21 36 -30 40 -72 97
-89 122 -8 12 -23 32 -33 43 -10 12 -31 37 -45 56 -15 19 -38 46 -51 60 -19
21 -23 22 -16 6z"/>
<path d="M7924 3718 c-32 -40 -61 -75 -64 -78 -3 -3 -36 -48 -73 -100 -37 -52
-70 -100 -74 -106 -15 -19 -66 -106 -113 -190 -20 -35 -90 -192 -96 -214 -3
-14 -61 -179 -141 -405 -19 -55 -44 -120 -56 -145 -11 -25 -19 -46 -18 -48 3
-5 -117 -224 -141 -257 -33 -45 -133 -157 -166 -187 -46 -42 -41 -45 32 -23
50 15 258 61 318 70 53 7 96 15 203 35 55 11 111 21 125 24 34 6 192 45 210
53 8 3 20 7 25 8 30 7 177 70 225 97 175 97 438 322 565 483 22 28 45 55 51
60 22 20 123 182 162 260 44 90 100 245 107 302 l5 38 -16 -37 c-9 -21 -20
-38 -26 -38 -5 0 -7 -4 -3 -9 3 -5 0 -15 -7 -23 -7 -7 -30 -38 -51 -68 -72
-106 -188 -214 -332 -311 -80 -53 -497 -269 -521 -269 -7 0 -14 -3 -16 -7 -1
-5 -47 -30 -102 -58 -146 -74 -266 -154 -451 -303 -47 -37 -145 -95 -151 -89
-2 2 27 33 64 69 227 222 314 360 378 606 13 52 26 107 29 121 3 14 7 35 9 46
2 11 7 40 11 65 4 25 9 54 11 65 2 11 6 38 9 60 2 22 6 49 9 60 4 22 17 98 22
130 2 11 5 29 8 40 2 11 9 43 15 70 17 78 63 218 79 243 8 12 12 25 10 28 -3
2 -32 -28 -64 -68z"/>
<path d="M1990 2812 c0 -5 9 -17 20 -27 11 -10 20 -22 20 -27 0 -5 11 -25 24
-46 13 -21 61 -109 106 -197 150 -290 177 -336 254 -429 74 -90 136 -143 233
-199 57 -33 101 -49 263 -96 130 -37 55 -51 -93 -17 -170 40 -275 53 -537 71
-377 25 -474 34 -586 56 -28 5 -62 12 -76 14 -179 33 -409 143 -524 252 -73
69 -80 73 -51 23 106 -181 281 -353 484 -478 137 -85 325 -164 444 -187 11 -2
29 -7 39 -10 57 -18 413 -26 510 -11 25 3 61 9 80 11 20 3 47 8 60 10 14 3 41
8 60 11 19 3 51 9 70 14 19 5 51 12 70 15 19 3 56 12 83 20 26 8 49 14 52 15
3 0 6 0 8 1 1 0 9 2 17 4 8 1 35 8 60 15 25 7 53 14 63 16 10 2 27 6 37 9 10
3 27 8 37 10 10 2 52 13 93 25 41 11 98 23 125 26 28 3 66 8 85 10 19 3 41 6
48 6 28 3 -7 16 -93 36 -142 33 -242 68 -360 127 -152 76 -209 121 -480 380
-170 164 -237 226 -309 290 -44 39 -84 75 -90 80 -22 21 -192 151 -218 168
-16 10 -28 14 -28 9z"/>
<path d="M7245 2758 c-81 -61 -225 -180 -275 -227 -15 -14 -85 -80 -155 -146
-71 -66 -152 -142 -181 -170 -87 -83 -179 -169 -210 -195 -78 -67 -248 -162
-361 -201 -82 -28 -270 -79 -293 -79 -11 0 -20 -4 -20 -10 0 -10 4 -11 50 -15
83 -7 125 -15 275 -55 66 -17 127 -33 135 -35 8 -2 80 -20 160 -39 80 -20 159
-39 175 -42 17 -3 53 -10 80 -15 75 -14 171 -27 250 -35 49 -4 281 -4 315 0
14 2 47 7 73 10 54 7 201 46 267 71 100 37 298 144 355 192 6 5 33 26 60 46
108 82 240 223 309 330 60 95 61 104 5 49 -65 -64 -193 -152 -275 -188 -32
-14 -68 -30 -79 -34 -32 -15 -195 -58 -260 -69 -144 -25 -154 -26 -279 -36
-39 -3 -96 -7 -126 -10 -71 -6 -205 -15 -298 -20 -67 -3 -140 -11 -202 -20
-14 -2 -45 -7 -70 -10 -25 -3 -73 -13 -106 -20 -100 -23 -116 -26 -171 -31
-29 -2 -53 0 -53 5 0 8 41 22 195 67 33 9 66 22 73 27 6 5 12 7 12 3 0 -7 89
46 140 83 69 51 220 220 220 246 0 4 11 21 24 38 14 18 70 122 127 232 56 110
124 235 151 279 27 43 47 80 46 81 -2 1 -39 -24 -83 -57z"/>
<path d="M4117 1744 c-1 -1 -34 -5 -73 -8 -39 -4 -82 -9 -95 -11 -13 -3 -40
-8 -59 -11 -140 -24 -413 -111 -545 -174 -11 -5 -121 -52 -245 -105 -227 -96
-355 -139 -465 -152 -79 -10 -317 -10 -380 0 -145 23 -299 74 -414 138 l-56
32 30 -33 c65 -73 154 -150 220 -192 28 -18 52 -35 55 -38 13 -16 304 -146
345 -155 5 -1 28 -7 50 -13 22 -6 63 -15 90 -19 60 -10 324 -10 380 0 77 13
100 18 120 24 11 4 25 8 32 9 45 8 227 74 263 95 8 5 26 14 40 19 14 6 32 14
40 19 8 6 38 22 65 37 48 26 112 69 260 175 192 139 314 205 415 225 14 3 41
9 60 13 39 8 144 6 198 -4 l36 -7 -35 -15 c-110 -51 -244 -118 -247 -125 -2
-4 -8 -8 -13 -8 -9 0 -209 -118 -219 -129 -3 -3 -25 -20 -50 -36 -25 -17 -49
-33 -55 -38 -5 -4 -37 -28 -70 -53 -81 -62 -123 -95 -150 -119 -12 -11 -48
-42 -79 -70 -32 -27 -81 -70 -109 -96 l-52 -47 55 -54 c69 -66 117 -107 129
-110 5 -2 94 80 198 182 183 180 216 211 337 314 145 126 414 305 481 322 14
3 28 10 31 15 9 16 38 10 104 -23 234 -114 475 -306 840 -670 l148 -148 28 23
c30 23 35 28 108 95 44 41 57 66 37 74 -5 2 -31 23 -58 48 -87 82 -176 157
-278 234 -55 42 -105 79 -110 84 -26 22 -225 151 -265 173 -25 13 -47 27 -50
30 -9 11 -277 139 -290 139 -25 0 -4 10 35 16 169 27 324 -11 503 -123 42 -27
196 -136 210 -150 7 -7 17 -13 21 -13 4 0 16 -8 27 -18 52 -48 342 -209 388
-216 6 -1 16 -4 21 -7 9 -6 113 -42 125 -44 3 -1 39 -8 80 -18 107 -24 128
-27 190 -32 190 -15 341 4 510 66 94 35 242 109 308 155 35 24 65 44 68 44 10
0 194 174 194 183 0 3 -33 -13 -72 -34 -67 -34 -238 -102 -238 -94 0 2 -15 -1
-32 -6 -50 -15 -60 -17 -170 -30 -94 -11 -327 -7 -347 6 -5 3 -25 7 -45 10
-44 5 -178 42 -220 60 -17 7 -47 20 -66 28 -82 34 -277 119 -305 132 -26 12
-93 39 -160 65 -11 4 -31 12 -45 19 -26 12 -161 56 -220 73 -78 21 -116 30
-135 33 -11 2 -45 9 -75 15 -74 15 -166 22 -280 20 -140 -1 -183 -7 -359 -46
-90 -20 -119 -23 -140 -15 -14 7 -40 14 -56 17 -17 3 -61 11 -100 19 -91 18
-336 38 -348 29z"/>
</g>
</svg>
